<?xml version="1.0" encoding="UTF-8" standalone="no"?>
<!DOCTYPE svg PUBLIC "-//W3C//DTD SVG 1.1//EN" "http://www.w3.org/Graphics/SVG/1.1/DTD/svg11.dtd">
<!-- Created with Vectornator (http://vectornator.io/) -->
<svg height="512.0px" stroke-miterlimit="10" style="fill-rule:nonzero;clip-rule:evenodd;stroke-linecap:round;stroke-linejoin:round;" version="1.1" viewBox="0 0 512 512" width="512.0px" xml:space="preserve" xmlns="http://www.w3.org/2000/svg" xmlns:xlink="http://www.w3.org/1999/xlink">
<defs/>
<g id="Слой-1">
<path d="M173.003 194.539C173.003 194.539 117.421 184.965 137.722 130.131C158.022 75.2971 190.833 48.2121 248.876 51.1401C306.918 54.0682 369.911 70.9432 378.491 106.906C382.272 122.755 342.039 167.009 302.387 213.68C252.062 272.913 202.674 336.04 245.397 349.93" fill="none" opacity="1" stroke="#a80c20" stroke-linecap="butt" stroke-linejoin="round" stroke-width="46.5861"/>
<path d="M199.275 442.811C199.275 432.724 211.973 424.547 227.637 424.547C243.302 424.547 256 432.724 256 442.811C256 452.897 243.302 461.074 227.637 461.074C211.973 461.074 199.275 452.897 199.275 442.811Z" fill="#3395ff" fill-rule="nonzero" opacity="1" stroke="#a80c20" stroke-linecap="butt" stroke-linejoin="round" stroke-width="46.5861"/>
<path d="M222.051 432.067C222.051 427.914 223.301 424.547 224.844 424.547C226.387 424.547 227.637 427.914 227.637 432.067C227.637 436.221 226.387 439.588 224.844 439.588C223.301 439.588 222.051 436.221 222.051 432.067Z" fill="#3395ff" fill-rule="nonzero" opacity="1" stroke="#a80c20" stroke-linecap="butt" stroke-linejoin="round" stroke-width="46.5861"/>
</g>
</svg>
