<?xml version="1.0" encoding="UTF-8" standalone="no"?>
<!DOCTYPE svg PUBLIC "-//W3C//DTD SVG 1.1//EN" "http://www.w3.org/Graphics/SVG/1.1/DTD/svg11.dtd">
<!-- Created with Vectornator (http://vectornator.io/) -->
<svg height="600.0px" stroke-miterlimit="10" style="fill-rule:nonzero;clip-rule:evenodd;stroke-linecap:round;stroke-linejoin:round;" version="1.1" viewBox="0 0 600 600" width="600.0px" xml:space="preserve" xmlns="http://www.w3.org/2000/svg" xmlns:xlink="http://www.w3.org/1999/xlink">
<defs/>
<g id="Слой-1">
<path d="M133.182 94.5733L426.605 95.8659L418.85 545.696L132.527 544.317L133.182 94.5733Z" fill="none" opacity="1" stroke="#f7ddad" stroke-linecap="butt" stroke-linejoin="round" stroke-width="10"/>
<path d="M138.597 94.4952C138.597 94.4952 140.835 94.1847 142.936 93.0802M132.527 95.8287C133.25 94.5582 163.383 56.5704 162.502 56.0125L467.473 54.3041L463.805 237.176L458.33 510.096C458.33 510.096 468.192 550.355 415.959 543.54" fill="none" opacity="1" stroke="#f7ddad" stroke-linecap="butt" stroke-linejoin="round" stroke-width="10"/>
<path d="M464.537 56.0125C464.537 56.0125 450.922 92.5235 419.981 96.2364" fill="none" opacity="1" stroke="#f7ddad" stroke-linecap="butt" stroke-linejoin="round" stroke-width="10"/>
<path d="M162.502 56.0125C162.183 55.8905 160.762 55.6934 160.64 56.0125C159.507 58.9762 161.257 55.5561 159.501 58.1681C154.575 65.4954 148.871 72.2776 143.81 79.5188C141.235 83.2024 138.86 86.9747 136.153 90.5591C135.539 91.3728 135.282 94.5856 135.407 94.5733" fill="none" opacity="1" stroke="#f7ddad" stroke-linecap="round" stroke-linejoin="round" stroke-width="10"/>
<path d="M154.222 355.48C154.222 355.48 267.377 113.991 404.91 355.48" fill="none" opacity="1" stroke="#f7ddad" stroke-linecap="butt" stroke-linejoin="round" stroke-width="10"/>
<path d="M175.381 326.041C175.381 326.041 290.376 514.632 378.691 320.981" fill="none" opacity="1" stroke="#f7ddad" stroke-linecap="butt" stroke-linejoin="round" stroke-width="10"/>
<path d="M203.21 314.695C203.21 277.944 237.396 248.152 279.566 248.152C321.737 248.152 355.922 277.944 355.922 314.695C355.922 351.446 321.737 381.239 279.566 381.239C237.396 381.239 203.21 351.446 203.21 314.695Z" fill="#f7ddad" fill-rule="nonzero" opacity="1" stroke="#f7ddad" stroke-linecap="butt" stroke-linejoin="round" stroke-width="10"/>
<g opacity="1">
<path d="M250.332 265.273C249.298 265.281 248.451 265.691 248.168 266.423C248.116 266.76 247.996 267.094 248.012 267.434C248.048 268.214 248.574 268.971 248.431 269.739C248.369 270.072 248.074 270.316 247.896 270.604C247.809 270.827 248.018 271.115 248.362 271.248C248.705 271.381 249.053 271.307 249.139 271.084C249.421 270.836 249.65 270.51 249.984 270.339C250.966 269.837 252.127 269.8 253.164 269.424C253.59 269.269 253.979 269.024 254.387 268.825C254.818 267.708 253.775 266.266 252.058 265.603C251.468 265.375 250.874 265.269 250.332 265.273Z" fill="#f7ddad" stroke="none"/>
</g>
<g opacity="1">
<path d="M301.154 323.874C301.018 323.876 300.881 323.883 300.743 323.894C298.528 324.075 296.828 325.388 296.945 326.828C296.511 328.516 296.018 330.197 295.946 331.949C295.884 333.474 295.808 334.936 295.945 336.473C295.983 336.899 296.096 337.847 296.223 338.364C297.127 342.051 301.071 339.743 302.839 338.116C303.231 337.756 303.611 337.383 304.016 337.037C304.402 336.707 304.784 336.373 305.172 336.046C305.708 335.595 306.253 335.184 306.834 334.793C307.004 334.663 306.98 334.348 306.782 334.087C306.583 333.827 306.285 333.72 306.115 333.849C305.03 334.581 304.072 335.436 303.065 336.268C302.375 336.837 301.499 337.406 300.592 337.537C300.528 337.546 299.605 337.611 299.64 337.5C299.674 337.391 300.281 337.59 300.289 337.547C300.497 336.317 300.897 335.184 301.428 334.039C302.64 331.426 303.89 328.852 304.965 326.175C304.855 324.825 303.187 323.843 301.154 323.874Z" fill="#f7ddad" stroke="none"/>
</g>
<path d="M196.08 291.083L162.502 224.386" fill="none" opacity="1" stroke="#f7ddad" stroke-linecap="butt" stroke-linejoin="round" stroke-width="25.7103"/>
<path d="M276.576 258.424L269.217 160.449" fill="none" opacity="1" stroke="#f7ddad" stroke-linecap="butt" stroke-linejoin="round" stroke-width="25.7103"/>
<path d="M355.922 291.083L391.111 211.047" fill="none" opacity="1" stroke="#f7ddad" stroke-linecap="butt" stroke-linejoin="round" stroke-width="25.7103"/>
</g>
</svg>
