<?xml version="1.0" encoding="UTF-8" standalone="no"?>
<!DOCTYPE svg PUBLIC "-//W3C//DTD SVG 1.1//EN" "http://www.w3.org/Graphics/SVG/1.1/DTD/svg11.dtd">
<!-- Created with Vectornator (http://vectornator.io/) -->
<svg height="512.0px" stroke-miterlimit="10" style="fill-rule:nonzero;clip-rule:evenodd;stroke-linecap:round;stroke-linejoin:round;" version="1.1" viewBox="0 0 512 512" width="512.0px" xml:space="preserve" xmlns="http://www.w3.org/2000/svg" xmlns:xlink="http://www.w3.org/1999/xlink">
<defs/>
<g id="Слой-1">
<path d="M136.379 58.0821C136.379 58.0821 244.426 62.3197 312.237 111.374C332.434 125.985 357.657 146.444 373.392 165.831C389.352 185.495 391.739 192.485 392.667 194.507C402.766 216.538 408.931 237.229 412.364 262.018C416.946 295.105 405.832 335.73 396.533 347.669C384.561 363.041 361.876 380.654 336.027 389.608C314.258 397.149 296.526 397.15 270.345 396.284C263.798 396.068 250.757 396.511 244.001 396.284C194.771 394.633 143.758 390.667 115.417 321.515C83.1873 242.874 139.053 208.065 160.97 188.297C170.37 179.818 191.419 169.523 193.595 151.533C196.492 127.583 183.594 99.6223 139.912 59.3762" fill="none" opacity="1" stroke="#f7ddad" stroke-linecap="butt" stroke-linejoin="round" stroke-width="10"/>
<path d="M69.3354 400.5L68.5689 430.011L160.55 449.94L161.7 419.663L69.3354 400.5Z" fill="none" opacity="1" stroke="#f7ddad" stroke-linecap="butt" stroke-linejoin="round" stroke-width="10"/>
<path d="M150.585 372.139L69.7187 400.5" fill="none" opacity="1" stroke="#f7ddad" stroke-linecap="butt" stroke-linejoin="round" stroke-width="10"/>
<path d="M160.55 419.279L235.859 396.284" fill="none" opacity="1" stroke="#f7ddad" stroke-linecap="butt" stroke-linejoin="round" stroke-width="10"/>
<path d="M160.55 449.94L311.168 396.284" fill="none" opacity="1" stroke="#f7ddad" stroke-linecap="butt" stroke-linejoin="round" stroke-width="10"/>
<path d="M401.703 427.787L406.167 453.815L487.431 421.793L484.618 393.592L401.703 427.787Z" fill="none" opacity="1" stroke="#f7ddad" stroke-linecap="butt" stroke-linejoin="round" stroke-width="10"/>
<path d="M405.108 453.918L259.531 415.038" fill="none" opacity="1" stroke="#f7ddad" stroke-linecap="butt" stroke-linejoin="round" stroke-width="10"/>
<path d="M401.936 429.576L292.078 400.5" fill="none" opacity="1" stroke="#f7ddad" stroke-linecap="butt" stroke-linejoin="round" stroke-width="10"/>
<path d="M484.618 393.592L377.188 364.867" fill="none" opacity="1" stroke="#f7ddad" stroke-linecap="butt" stroke-linejoin="round" stroke-width="10"/>
<path d="M413.43 295.179L468.283 315.552L401.703 335.734" fill="none" opacity="1" stroke="#f7ddad" stroke-linecap="butt" stroke-linejoin="round" stroke-width="10"/>
<path d="M468.276 316.361L467.962 335.993L375.925 368.292" fill="none" opacity="1" stroke="#f7ddad" stroke-linecap="butt" stroke-linejoin="round" stroke-width="10"/>
<path d="M139.011 357.57C139.011 357.57 74.5164 342.607 70.2338 339.089C65.9512 335.571 105.633 303.345 105.633 303.345" fill="none" opacity="1" stroke="#f7ddad" stroke-linecap="butt" stroke-linejoin="round" stroke-width="10"/>
<path d="M69.846 338.302L69.0829 358.142L130.891 376.837" fill="none" opacity="1" stroke="#f7ddad" stroke-linecap="butt" stroke-linejoin="round" stroke-width="10"/>
<path d="M235.859 131.089C235.859 131.089 259.531 161.108 259.531 189.314C259.531 210.166 252.656 217.152 246.339 227.374C242.964 232.837 230.458 245.408 210.049 260.293C195.636 270.806 191.946 279.802 187.924 295.179C183.902 310.556 189.904 321.418 198.204 330.457C209.232 342.468 219.304 349.539 222.651 351.104C229.561 354.334 250.046 358.54 270.345 357.57C292.723 356.5 310.2 342.486 310.2 342.486C310.2 342.486 347.007 316.361 347.007 295.179C347.007 273.998 347.007 257.259 332.319 227.374C330.334 223.336 310.734 191.645 292.078 169.71C270.778 144.667 235.859 131.089 235.859 131.089Z" fill="none" opacity="1" stroke="#f7ddad" stroke-linecap="butt" stroke-linejoin="round" stroke-width="10"/>
</g>
</svg>
