<?xml version="1.0" encoding="UTF-8" standalone="no"?>
<!DOCTYPE svg PUBLIC "-//W3C//DTD SVG 1.1//EN" "http://www.w3.org/Graphics/SVG/1.1/DTD/svg11.dtd">
<!-- Created with Vectornator (http://vectornator.io/) -->
<svg height="512.0px" stroke-miterlimit="10" style="fill-rule:nonzero;clip-rule:evenodd;stroke-linecap:round;stroke-linejoin:round;" version="1.1" viewBox="0 0 512 512" width="512.0px" xml:space="preserve" xmlns="http://www.w3.org/2000/svg" xmlns:xlink="http://www.w3.org/1999/xlink">
<defs/>
<g id="Слой-1">
<path d="M127.798 93.67L182.427 173.998L181.105 203.643L137.647 220.483L107.532 250.023L77.1313 297.143L72.2878 340.392L70.6489 380.498L86.8261 424.546L106.03 455.658L153.791 479.054L225.161 480.011L314.594 480.967L358.209 480.967L389.848 471.754L410.195 451.322L432.223 414.983L441.132 386.799L439.712 361.431L433.348 335.341L430.461 319.354L415.516 280.522L402.265 253.37L361.387 217.593L319.881 206.034L313.713 176.867L393.894 77.4131L326.049 78.8475L301.377 34.3801L253.797 76.9349L190.798 31.0331L184.189 85.5415L127.798 93.67Z" fill="none" opacity="1" stroke="#f7ddad" stroke-linecap="butt" stroke-linejoin="round" stroke-width="10"/>
<path d="M185.951 173.52L313.272 173.52L318.559 203.165L182.427 205.556L185.951 173.52Z" fill="#ad2112" fill-rule="nonzero" opacity="1" stroke="#f7ddad" stroke-linecap="butt" stroke-linejoin="round" stroke-width="10"/>
<g opacity="1">
<path d="M157.297 249.653C155.955 249.621 154.808 250.056 154.177 250.977C144.356 259.989 137.491 271.897 132.003 283.917C123.997 301.45 118.263 320.361 115.89 339.51C115.216 344.947 114.82 350.434 114.744 355.912C114.657 362.116 114.937 368.381 116.729 374.365C117.874 378.186 119.137 381.964 120.227 385.803C121.107 388.907 121.944 392.022 122.773 395.139C123.558 398.877 124.532 402.589 125.45 406.282C127.433 414.264 129.451 422.286 132.085 430.082C132.299 430.715 132.511 431.328 132.741 431.955C133.407 433.771 134.519 437.389 136.788 437.899C138.183 438.212 139.742 437.965 140.989 437.261C141.784 436.812 142.538 436.26 143.17 435.601C143.641 435.108 143.961 434.484 144.245 433.863C144.515 433.274 144.517 432.566 144.405 431.943C144.124 430.389 142.812 429.321 142.289 427.884C141.333 425.258 140.814 422.418 140.215 419.695C138.7 412.799 137 405.955 135.601 399.033C133.614 389.205 131.757 379.362 129.397 369.614C126.589 358.017 128.15 345.355 130.484 333.826C133.939 316.761 139.271 299.915 146.815 284.206C151.255 274.961 156.688 264.928 164.44 258.014C165.703 256.171 164.427 253.102 161.592 251.16C160.175 250.189 158.639 249.686 157.297 249.653Z" fill="#f7ddad" stroke="none"/>
</g>
</g>
</svg>
