<?xml version="1.0" encoding="UTF-8" standalone="no"?>
<!DOCTYPE svg PUBLIC "-//W3C//DTD SVG 1.1//EN" "http://www.w3.org/Graphics/SVG/1.1/DTD/svg11.dtd">
<!-- Created with Vectornator (http://vectornator.io/) -->
<svg height="511.99999999999994px" stroke-miterlimit="10" style="fill-rule:nonzero;clip-rule:evenodd;stroke-linecap:round;stroke-linejoin:round;" version="1.1" viewBox="0 0 512 512" width="512.0px" xml:space="preserve" xmlns="http://www.w3.org/2000/svg" xmlns:xlink="http://www.w3.org/1999/xlink">
<defs/>
<g id="Слой-1">
<path d="M147.297 203.61C147.297 147.955 193.569 102.837 250.648 102.837C307.728 102.837 354 147.955 354 203.61C354 259.266 307.728 304.383 250.648 304.383C193.569 304.383 147.297 259.266 147.297 203.61Z" fill="none" opacity="1" stroke="#a80c20" stroke-linecap="butt" stroke-linejoin="round" stroke-width="10"/>
<path d="M197.361 289.772C197.361 289.772 190.915 447.485 176.304 460.807C161.693 474.129 250.648 471.551 250.648 471.551" fill="none" opacity="1" stroke="#a80c20" stroke-linecap="butt" stroke-linejoin="round" stroke-width="10"/>
<path d="M303.431 289.772C303.431 289.772 310.503 447.485 326.535 460.807C342.566 474.129 244.963 471.551 244.963 471.551" fill="none" opacity="1" stroke="#a80c20" stroke-linecap="butt" stroke-linejoin="round" stroke-width="10"/>
<path d="M195.262 291.513C195.262 291.513 173.763 310.962 147.297 312.132C129.857 312.903 106.996 299.315 98.2833 289.772C93.0137 284.001 89.7615 276.56 85.4017 268.08C79.6703 256.932 79.8319 241.408 80.5837 227.998C82.1142 200.703 93.9842 173.177 104.005 154.583C116.233 131.893 145.446 93.2955 174.683 71.0569C201.245 50.8527 242.595 38.5705 248.029 36.853" fill="none" opacity="1" stroke="#a80c20" stroke-linecap="butt" stroke-linejoin="round" stroke-width="10"/>
<path d="M299.39 291.513C299.39 291.513 322.932 310.962 351.915 312.132C371.013 312.903 396.047 299.315 405.589 289.772C411.359 284.001 414.921 276.56 419.695 268.08C425.971 256.932 425.794 241.408 424.971 227.998C423.295 200.703 410.297 173.177 399.323 154.583C385.933 131.893 353.942 93.2955 321.925 71.0569C292.838 50.8527 250.914 38.5705 244.963 36.853" fill="none" opacity="1" stroke="#a80c20" stroke-linecap="butt" stroke-linejoin="round" stroke-width="10"/>
<path d="M192.94 297.964C192.94 297.964 177.663 333.35 160.233 366.838C146.399 393.417 131.208 418.801 121.222 424.348C98.6535 436.887 69.5649 457.449 69.5649 457.449C69.5649 457.449 95.6443 477.009 119.216 475.003C142.788 472.996 175.387 464.471 175.387 464.471" fill="none" opacity="1" stroke="#a80c20" stroke-linecap="butt" stroke-linejoin="round" stroke-width="10"/>
<path d="M306.02 297.964C306.02 297.964 322.911 333.35 342.184 366.838C357.48 393.417 374.276 418.801 385.318 424.348C410.272 436.887 442.435 457.449 442.435 457.449C442.435 457.449 413.599 477.009 387.536 475.003C361.473 472.996 325.429 464.471 325.429 464.471" fill="none" opacity="1" stroke="#a80c20" stroke-linecap="butt" stroke-linejoin="round" stroke-width="10"/>
<path d="M192 206.06C192 206.06 211.325 172.354 249.974 172.354C288.624 172.354 309.297 205.162 309.297 205.162C309.297 205.162 284.13 236.171 253.57 234.823C223.009 233.475 192 206.06 192 206.06Z" fill="none" opacity="1" stroke="#a80c20" stroke-linecap="butt" stroke-linejoin="round" stroke-width="10"/>
<path d="M233.065 203.927C233.065 193.13 241.818 184.378 252.615 184.378C263.412 184.378 272.165 193.13 272.165 203.927C272.165 214.724 263.412 223.477 252.615 223.477C241.818 223.477 233.065 214.724 233.065 203.927Z" fill="#a80c20" fill-rule="nonzero" opacity="1" stroke="#a80c20" stroke-linecap="butt" stroke-linejoin="round" stroke-width="10"/>
</g>
</svg>
