<?xml version="1.0" encoding="UTF-8" standalone="no"?>
<!DOCTYPE svg PUBLIC "-//W3C//DTD SVG 1.1//EN" "http://www.w3.org/Graphics/SVG/1.1/DTD/svg11.dtd">
<!-- Created with Vectornator (http://vectornator.io/) -->
<svg height="512.0px" stroke-miterlimit="10" style="fill-rule:nonzero;clip-rule:evenodd;stroke-linecap:round;stroke-linejoin:round;" version="1.1" viewBox="0 0 512 512" width="512.0px" xml:space="preserve" xmlns="http://www.w3.org/2000/svg" xmlns:xlink="http://www.w3.org/1999/xlink">
<defs/>
<g id="Слой-1">
<path d="M84.2962 326.085C84.2962 326.085 131.501 192.18 255.857 192.731C380.214 193.282 423.358 328.289 423.358 328.289C423.358 328.289 369.047 381.74 252.812 380.087C136.577 378.434 84.2962 326.085 84.2962 326.085Z" fill="none" opacity="1" stroke="#a80c20" stroke-linecap="butt" stroke-linejoin="round" stroke-width="10"/>
<path d="M187.433 286.427C187.433 250.471 217.159 221.322 253.827 221.322C290.496 221.322 320.221 250.471 320.221 286.427C320.221 322.384 290.496 351.532 253.827 351.532C217.159 351.532 187.433 322.384 187.433 286.427Z" fill="#a80c20" fill-rule="nonzero" opacity="1" stroke="#a80c20" stroke-linecap="butt" stroke-linejoin="round" stroke-width="10"/>
<path d="M139.517 238.726L93.9653 160.944" fill="none" opacity="1" stroke="#a80c20" stroke-linecap="butt" stroke-linejoin="round" stroke-width="21.1051"/>
<path d="M84.2962 325.998C84.2962 325.998 39.1739 366.393 10.3816 354.79" fill="none" opacity="1" stroke="#a80c20" stroke-linecap="butt" stroke-linejoin="round" stroke-width="10"/>
<path d="M417.633 325.998C417.633 325.998 468.903 366.393 501.618 354.79" fill="none" opacity="1" stroke="#a80c20" stroke-linecap="butt" stroke-linejoin="round" stroke-width="10"/>
<path d="M251.269 190.642L251.269 88.1091" fill="none" opacity="1" stroke="#a80c20" stroke-linecap="butt" stroke-linejoin="round" stroke-width="20.1972"/>
<path d="M360.335 234.369L417.633 162.495" fill="none" opacity="1" stroke="#a80c20" stroke-linecap="butt" stroke-linejoin="round" stroke-width="21.1051"/>
</g>
</svg>
