<?xml version="1.0" encoding="UTF-8" standalone="no"?>
<!DOCTYPE svg PUBLIC "-//W3C//DTD SVG 1.1//EN" "http://www.w3.org/Graphics/SVG/1.1/DTD/svg11.dtd">
<!-- Created with Vectornator (http://vectornator.io/) -->
<svg height="500.0px" stroke-miterlimit="10" style="fill-rule:nonzero;clip-rule:evenodd;stroke-linecap:round;stroke-linejoin:round;" version="1.1" viewBox="0 0 500 500" width="500.00000000000006px" xml:space="preserve" xmlns="http://www.w3.org/2000/svg" xmlns:xlink="http://www.w3.org/1999/xlink">
<defs/>
<g id="Слой-1">
<path d="M24.7398 230.552C24.7398 230.552-10.9317 50.9353 125.879 32.0504C180.167 24.5566 237.263 25.0606 288.15 27.6302C345.737 30.5381 389.428 50.9353 389.428 50.9353C389.428 50.9353 543.864 140.049 448.181 247.902C429.91 268.497 423.92 272.242 416.764 285.425C386.445 341.282 424.26 345.54 424.26 345.54L450.699 347.218L441.886 366.731C441.886 366.731 421.194 375.772 389.016 377.218C364.771 378.307 335.456 378.169 295.423 349.317C267.878 329.464 240.171 325.128 218.611 321.513C184.952 315.869 148.294 311.966 148.294 311.966C148.294 311.966 109.611 301.769 96.0827 298.118C82.554 294.466 54.9556 284.269 39.0084 265.384C23.0611 246.499 25.1595 226.775 25.1595 226.775" fill="none" opacity="1" stroke="#f7ddad" stroke-linecap="butt" stroke-linejoin="round" stroke-width="10"/>
<path d="M219.304 344.95L202.439 336.799L180.679 331.397L143.485 334.544L110.44 350.539L88.0077 373.268L69.964 404.447L74.6658 437.467L93.8355 461.216L128.751 465.994L147.205 466.462L159.221 466.929L197.398 457.382L212.866 472.537L237.83 474.082L277.278 459.804L254.066 458.049L235.183 444.496L235.612 426.737C235.612 426.737 243.766 414.585 248.487 410.379C253.207 406.173 252.349 390.75 252.349 390.75L246.341 378.599L242.478 369.719L234.753 357.568L219.304 344.95Z" fill="none" opacity="1" stroke="#f7ddad" stroke-linecap="butt" stroke-linejoin="round" stroke-width="10"/>
<g opacity="1">
<path d="M159.892 60.5367C147.941 60.1091 136.251 65.7736 127.685 73.843C122.324 78.8939 117.904 84.9667 114.06 91.2215C111.627 95.1803 109.418 99.273 107.037 103.263C101.883 104.142 96.192 108.053 92.0853 114.153C85.7729 123.529 85.59 134.452 91.6843 138.555C94.9448 139.153 98.2167 139.366 101.525 139.069C113.421 138 124.486 131.454 132.323 122.616C135.466 119.071 138.165 115.194 140.591 111.13C143.607 106.076 146.144 100.768 148.971 95.6124C149.127 95.3295 149.298 95.0601 149.455 94.7795C149.495 94.8156 149.606 94.8924 149.64 94.9234C149.878 95.1403 150.112 95.3635 150.339 95.5918C154.795 100.072 158.016 105.794 161.363 111.099C164.027 115.323 166.517 119.633 169.517 123.634C170.563 125.029 171.562 126.428 172.767 127.696C180.044 135.353 189.442 138.459 199.77 138.431C216.125 138.388 230.042 130.498 242.98 121.269C247.02 118.386 251.01 115.424 255.155 112.693C256.432 111.851 257.833 111.177 259.155 110.41C263.88 107.668 269.434 105.816 274.97 106.348C281.162 106.943 282.606 114.301 283.742 119.253C284.092 120.779 284.255 121.581 284.616 123.109C285.479 126.76 286.481 130.507 288.544 133.691C293.161 140.814 301.635 141.853 309.306 139.963C316.633 138.158 323.27 134.121 329.378 129.814C337.992 123.74 345.926 116.746 354.017 110.009C358.429 106.334 363.024 102.833 367.992 99.9313C370.402 98.5234 373.197 96.9107 376.054 96.6921C376.502 96.6578 377.249 96.6016 377.658 96.8361C379.133 97.6834 379.398 101.338 379.509 102.697C379.808 106.367 379.381 110.048 379.653 113.711C379.863 116.546 380.661 119.518 381.935 122.061C382.557 123.301 383.32 124.462 384.259 125.485C390.001 131.74 399.689 130.371 407.067 128.683C408.791 128.289 410.501 127.835 412.209 127.377C413.387 127.449 414.432 126.042 414.543 124.23C414.654 122.419 413.788 120.888 412.61 120.816C405.378 122.758 394.204 126.269 389.853 117.587C386.712 111.319 388.631 104.252 387.591 97.5868C386.952 93.4883 385.49 90.325 380.989 89.823C380.145 89.7289 379.286 89.7191 378.439 89.7819C375.024 90.035 371.744 91.3105 368.701 92.8154C364.581 94.8531 360.739 97.4326 357.009 100.106C347.413 106.984 338.01 114.222 328.083 120.621C323.741 123.42 319.195 126.196 314.283 127.881C312.102 128.629 309.61 129.247 307.331 128.56C302.415 127.076 301.79 120.526 301.285 116.323C301.096 114.747 301.034 113.97 300.853 112.384C300.065 105.481 298.799 97.8815 292.822 93.4632C291.714 92.6439 290.501 91.9757 289.233 91.4375C287.27 90.6038 285.172 90.1258 283.063 89.8539C267.085 87.7936 252.172 94.9975 238.836 102.996C234.554 105.563 230.304 108.222 225.838 110.461C220.679 113.048 215.756 114.745 210.063 113.207C206.551 112.258 203.889 109.608 201.693 106.821C200.412 105.195 199.135 103.459 198.043 101.7C195.721 97.9639 194.032 93.7457 192.346 89.6996C189.822 83.6435 187.197 77.5333 183.122 72.3314C177.316 64.9195 169.283 60.8727 159.892 60.5367ZM145.383 92.3115C145.499 92.3253 145.63 92.3713 145.753 92.4041C145.732 92.4056 145.712 92.413 145.691 92.4144C145.514 92.4259 145.245 92.4263 145.064 92.4144C144.972 92.4083 144.708 92.3669 144.797 92.3424C144.976 92.2925 145.173 92.2867 145.383 92.3115Z" fill="#ad2112" stroke="none"/>
</g>
<g opacity="1">
<path d="M401.115 165.701C397.762 165.61 394.898 166.698 393.314 168.995C390.88 171.264 388.655 173.683 386.676 176.361C382.864 181.518 380.049 187.314 377.308 193.085C377.104 193.515 376.886 193.938 376.682 194.368C374.155 192.592 371.576 190.894 368.719 189.67C363.621 187.485 357.967 187.285 352.521 186.638C346.194 185.887 339.849 184.881 333.483 184.536C327.822 184.23 321.958 184.806 316.567 186.608C314.837 187.186 313.15 187.893 311.505 188.679C311.197 188.827 310.899 188.977 310.595 189.134C310.536 189.104 310.473 189.084 310.414 189.053C309.22 188.424 308.126 187.637 307.018 186.871C303.756 184.613 300.535 182.554 296.772 181.212C291.868 179.463 286.782 179.774 281.705 180.282C280.464 180.406 279.251 180.478 278.017 180.565C277.833 180.578 277.656 180.695 277.471 180.686C276.741 180.651 276.074 180.251 275.349 180.151C275.186 180.128 275.652 180.289 275.794 180.373C275.871 180.419 275.624 180.315 275.541 180.282C275.418 180.233 275.296 180.177 275.188 180.1C274.812 179.834 274.514 179.48 274.197 179.15C273.419 178.341 272.601 177.609 271.621 177.039C269.056 175.548 265.989 175.286 263.092 175.513C256.666 176.016 250.818 179.03 246.075 183.293C244.782 184.456 243.598 185.728 242.407 186.992C241.894 187.536 241.344 188.067 240.841 188.619C240.741 188.729 240.664 188.848 240.558 188.952C240.488 189.022 240.27 189.125 240.356 189.175C234.268 189.349 228.177 186.733 222.753 184.354C214.023 180.527 204.716 175.545 194.995 175.199C188.865 174.982 183.169 177.384 178.039 180.555C174.038 183.028 170.131 186.53 165.377 187.396C164.701 187.519 163.807 187.071 163.235 186.78C161.695 185.994 160.368 184.816 159.102 183.657C155.605 180.455 152.259 176.797 147.451 175.705C143.226 174.745 138.973 176.277 135.588 178.797C134.299 179.756 133.146 180.878 131.9 181.889C131.141 182.504 130.431 183.079 129.454 183.233C125.024 183.929 120.283 180.976 116.257 179.545C111.333 177.794 106.355 177.434 101.292 178.716C100.107 178.617 99.0289 180.016 98.8768 181.838C98.7247 183.661 99.5617 185.216 100.746 185.314C107.248 183.648 112.342 187.051 118.288 189.033C120.87 189.893 123.556 190.387 126.281 190.215C130.154 189.972 133.472 188.305 136.457 185.901C138.855 183.969 140.168 181.634 143.389 182.616C145.552 183.276 147.374 184.935 149.007 186.426C152.688 189.785 156.46 194.122 161.82 194.318C167.643 194.53 173.045 191.605 177.998 188.912C181.092 187.23 184.442 185.038 188.093 185.001C189.474 184.987 190.821 185.34 192.135 185.729C197.889 187.431 203.067 190.772 208.131 193.894C215.211 198.257 222.506 202.658 230.857 203.948C237.865 205.03 244.483 202.942 250.259 198.875C252.06 197.608 253.71 196.149 255.372 194.712C256.081 195.538 256.87 196.281 257.757 196.915C261.096 199.3 265.379 200.274 269.398 200.573C271.391 200.721 273.412 200.639 275.41 200.684C276.44 200.707 277.57 200.697 278.543 201.088C278.681 201.144 278.933 201.151 278.937 201.3C278.938 201.358 278.719 201.256 278.765 201.29C279.353 201.725 280.049 202.001 280.624 202.452C282.103 203.613 283.398 205.077 284.737 206.393C287.416 209.028 290.386 211.403 293.922 212.78C298.943 214.735 304.383 214.378 309.524 213.083C311.833 212.501 314.029 211.558 316.325 210.951C316.601 210.878 316.262 211.146 316.224 211.163C315.959 211.28 315.642 211.273 315.395 211.426C315.24 211.521 315.759 211.466 315.941 211.486C316.367 211.534 316.788 211.56 317.214 211.607C318.604 211.763 320 211.886 321.388 212.062C325.036 212.525 328.651 213.392 332.18 214.417C334.426 215.069 336.659 215.749 338.91 216.387C340.043 216.708 341.237 216.944 342.345 217.347C342.387 217.362 342.261 217.43 342.285 217.468C342.335 217.55 342.43 217.583 342.507 217.64C343.031 218.034 343.548 218.423 344.053 218.843C345.232 219.822 346.391 220.818 347.539 221.834C350.628 224.567 353.715 227.299 357.361 229.281C365.517 233.714 375.215 232.841 383.543 229.291C393.305 225.13 400.929 217.524 406.653 208.748C409.997 203.62 412.742 198.158 415.596 192.752C416.474 191.088 417.363 189.423 418.334 187.81C418.652 187.283 419.004 186.66 419.405 186.113C419.235 186.283 419.042 186.438 418.91 186.638C422.076 182.044 418.916 174.371 411.847 169.5C408.313 167.065 404.469 165.791 401.115 165.701ZM419.405 186.113C419.437 186.081 419.466 186.045 419.496 186.012C419.591 185.909 419.681 185.797 419.769 185.688C419.819 185.627 419.95 185.434 419.89 185.486C419.704 185.652 419.565 185.896 419.405 186.113ZM240.962 188.993C241.012 189.005 240.78 189.068 240.831 189.073C240.957 189.086 241.225 188.906 241.215 189.033C241.207 189.137 240.753 189.173 240.72 189.175C240.602 189.18 240.484 189.171 240.366 189.175C240.549 189.264 240.76 188.941 240.962 188.993ZM311.444 189.508C312.022 189.506 312.58 189.564 312.738 189.821C312.75 189.841 312.7 189.862 312.677 189.862C312.363 189.863 312.007 189.731 311.717 189.629C311.623 189.596 311.537 189.545 311.444 189.508ZM258.474 192.337C258.567 192.344 258.332 192.458 258.262 192.519C258.137 192.628 258.02 192.734 257.878 192.822C257.676 192.949 257.457 193.038 257.241 193.136C257.293 193.095 257.341 193.054 257.393 193.014C257.527 192.911 258.232 192.321 258.474 192.337ZM385.231 200.047C385.335 200.068 385.44 200.081 385.544 200.108C385.654 200.137 385.97 200.223 385.857 200.239C385.677 200.266 385.453 200.15 385.231 200.047Z" fill="#ad2112" stroke="none"/>
</g>
<g opacity="1">
<path d="M194.364 225.914C183.627 226.068 174.342 232.375 165.669 238.14C163.663 239.473 161.581 240.681 159.569 242.008C157.384 243.449 155.208 244.905 153 246.31C151.85 247.042 150.689 247.76 149.507 248.44C148.631 248.944 147.746 249.448 146.84 249.897C145.921 250.353 144.929 250.834 143.901 250.988C142.074 251.26 139.941 250.697 138.235 250.161C137.384 249.894 136.545 249.584 135.722 249.241C134.269 248.635 132.878 247.923 131.488 247.188C125.808 241.824 114.511 244.559 106.26 253.296C98.0088 262.034 95.929 273.467 101.608 278.831C109.075 282.204 116.898 284.491 125.14 284.667C144.323 285.075 161.358 274.747 175.604 262.864C179.261 259.813 182.819 256.671 186.228 253.348C186.326 253.252 186.431 253.164 186.535 253.075C189.579 253.602 192.518 254.688 195.353 255.886C207.022 260.82 218.184 268.316 231 269.868C240.153 270.976 249.205 268.468 258.289 269.501C264.473 270.204 270.493 272.203 276.564 273.497C282.951 274.859 289.429 275.459 295.947 274.809C300.403 274.365 304.554 273.208 308.642 271.393C313.62 269.182 318.357 266.43 323.909 266.042C328.828 265.698 333.889 266.596 338.751 267.218C348.207 268.427 357.983 269.482 366.96 265.548C368.022 265.291 368.565 263.756 368.17 262.123C367.775 260.49 366.59 259.378 365.529 259.635C360.63 261.801 355.092 261.629 349.861 261.16C342.675 260.517 335.535 259.03 328.297 259.081C324.136 259.111 320.047 260.028 316.148 261.441C311.539 263.112 306.819 265.52 301.826 265.71C296.962 265.894 292.118 264.93 287.538 263.35C280.849 261.043 274.565 257.578 267.729 255.682C264.26 254.72 260.691 254.169 257.105 253.893C251.24 253.442 245.279 253.604 239.835 251.064C236.679 249.592 233.815 247.583 230.991 245.569C224.913 241.234 219.327 236.275 213.031 232.235C208.068 229.051 202.507 226.345 196.528 225.965C195.799 225.918 195.08 225.903 194.364 225.914ZM183.519 252.76C183.638 252.772 183.767 252.809 183.876 252.811C184.3 252.819 184.717 252.883 185.137 252.922C184.712 252.994 184.278 253.021 183.842 252.981C183.685 252.967 183.528 252.955 183.374 252.922C183.319 252.91 183.194 252.889 183.229 252.845C183.296 252.759 183.399 252.748 183.519 252.76Z" fill="#ad2112" stroke="none"/>
</g>
<g opacity="1">
<path d="M216.586 382.805C215.808 382.781 214.943 382.934 214.085 383.279C211.796 384.2 210.425 386.152 211.024 387.64C211.369 389.631 212.02 391.469 212.746 393.347C213.381 394.991 214.694 397.801 214.218 399.68C212.412 400.584 209.543 400.022 207.587 399.954C203.803 399.823 200.812 399.909 197.284 401.602C190.11 405.045 185.381 411.911 180.546 417.941C178.916 419.974 177.263 422.053 175.293 423.773C174.744 424.253 174.003 424.962 173.242 425.081C172.904 425.133 173.036 424.773 173.156 424.619C173.208 424.551 173.833 423.974 173.79 423.883C173.749 423.797 173.571 423.846 173.536 423.758C173.477 423.61 173.875 423.741 173.528 423.507C172.908 423.09 172.183 422.809 171.594 422.348C171.262 422.089 171.2 421.673 171.007 421.323C170.544 420.486 170.086 419.646 169.629 418.806C168.151 416.087 166.997 413.128 165.175 410.609C162.279 406.609 157.686 404.292 152.852 403.595C151.802 403.443 150.739 403.276 149.681 403.36C147.989 403.494 146.299 403.701 144.62 403.959C143.617 404.113 142.642 404.404 141.645 404.593C140.663 404.779 139.622 404.705 138.674 405.023C136.363 405.8 133.987 406.46 131.832 407.599C129.573 408.793 127.627 410.511 125.53 411.971C123.508 413.379 121.588 414.8 119.791 416.52C118.002 418.233 116.336 420.114 114.683 421.996C109.624 423.035 104.621 428.52 102.455 436.064C99.7322 445.544 102.517 454.661 108.678 456.431C122.249 454.425 133.549 447.122 141.759 436.287C142.069 435.878 142.365 435.458 142.667 435.043C143.793 435.942 144.909 436.856 146.065 437.704C148.244 439.305 150.583 440.71 153.15 441.599C157.168 442.992 161.784 443.231 165.989 442.801C177.635 441.611 186.596 434.186 191.89 424.094C193.686 420.671 195.107 417.075 196.818 413.612C197.913 411.396 199.07 409.022 200.999 407.415C201.634 406.886 202.815 406.85 203.582 406.863C205.307 406.892 207.027 407.07 208.753 407.039C213.457 406.955 218.535 405.264 221.252 401.168C224.991 395.529 220.252 389.916 219.31 384.305C218.936 383.375 217.883 382.846 216.586 382.805ZM112.01 424.995C111.849 425.164 111.691 425.336 111.528 425.503C111.174 425.866 110.873 426.487 110.366 426.486C110.324 426.486 110.434 426.317 110.667 426.087C110.765 425.99 110.868 425.895 110.972 425.805C111.27 425.547 111.663 425.235 111.982 425.01C111.991 425.004 112.001 425.001 112.01 424.995ZM135.903 430.69C136.043 430.696 136.305 430.905 136.463 430.972C136.702 431.073 136.932 431.191 137.163 431.308C136.672 431.185 135.773 430.934 135.809 430.764C135.821 430.709 135.856 430.688 135.903 430.69ZM139.379 432.628C139.384 432.631 139.389 432.636 139.395 432.639C139.35 432.656 139.306 432.673 139.261 432.69C139.179 432.721 139.37 432.636 139.379 432.628Z" fill="#ad2112" stroke="none"/>
</g>
<g opacity="1">
<path d="M170.327 346.478C168.629 346.496 166.917 346.657 165.206 346.865C163.086 347.122 160.967 347.373 158.92 348.004C151.206 350.381 144.487 355.607 139.244 361.63C137.403 363.745 135.76 366.021 134.084 368.266C133.086 369.603 132.18 371.069 130.91 372.166C128.446 374.297 125.604 376.148 122.769 377.745C120.671 378.927 118.341 379.69 116.206 380.816C112.734 382.647 109.572 384.893 106.585 387.431C105.904 388.296 106.431 389.847 107.761 390.894C109.092 391.942 110.72 392.091 111.401 391.226C114.811 388.321 118.675 385.82 122.916 384.295C125.24 383.459 128.011 383.243 130.437 382.674C134.111 381.811 137.535 380.568 140.889 378.827C144.855 376.767 148.622 374.148 152.838 372.606C153.561 372.341 154.919 371.797 155.691 372.261C155.79 372.321 155.81 372.462 155.896 372.54C156.009 372.641 156.278 372.636 156.278 372.787C156.277 373.064 155.882 373.185 155.744 373.424C155.301 374.187 154.861 374.137 154.283 374.587C154.114 374.719 153.933 375.067 153.783 375.156C153.236 375.48 151.955 375.538 151.344 375.392C151.058 375.325 150.139 375.195 149.868 375.061C149.681 374.969 149.513 374.606 149.344 374.727C149.161 374.858 149.373 375.176 149.396 375.4C149.426 375.675 149.45 375.95 149.502 376.221C149.591 376.69 149.705 377.152 149.818 377.616C150.19 379.146 150.721 380.668 151.478 382.053C155.213 388.89 162.722 390.509 169.961 390.21C176.153 392.277 183.749 386.228 186.929 376.703C190.109 367.177 187.668 357.781 181.477 355.714C182.121 355.851 182.841 355.769 183.5 355.851C184.833 356.017 186.149 356.387 187.311 357.072C187.449 357.154 187.579 357.257 187.713 357.351C187.408 356.814 187.131 356.263 186.882 355.856C186.437 355.131 186.031 354.38 185.519 353.701C183.672 351.255 181.395 349.327 178.622 348.049C175.95 346.817 173.158 346.448 170.327 346.478ZM187.713 357.351C188.053 357.948 188.429 358.528 188.879 358.906C188.911 358.933 188.934 358.848 188.958 358.814C189.05 358.683 188.76 358.33 188.7 358.251C188.431 357.899 188.081 357.609 187.713 357.351Z" fill="#ad2112" stroke="none"/>
</g>
</g>
</svg>
