<?xml version="1.0" encoding="UTF-8" standalone="no"?>
<!DOCTYPE svg PUBLIC "-//W3C//DTD SVG 1.1//EN" "http://www.w3.org/Graphics/SVG/1.1/DTD/svg11.dtd">
<!-- Created with Vectornator (http://vectornator.io/) -->
<svg height="600.0px" stroke-miterlimit="10" style="fill-rule:nonzero;clip-rule:evenodd;stroke-linecap:round;stroke-linejoin:round;" version="1.1" viewBox="0 0 600 600" width="600.0px" xml:space="preserve" xmlns="http://www.w3.org/2000/svg" xmlns:xlink="http://www.w3.org/1999/xlink">
<defs/>
<g id="Слой-1">
<path d="M206.166 38.6107C393.834 39.5732 391.04 40.0544 391.04 40.0544L390.575 193.568L569.396 193.568L564.273 384.137L390.575 386.062L390.575 570.856L188.004 568.449L191.729 387.024L32.4671 385.099L30.6044 195.974L206.631 195.974C206.631 195.974 210.822 49.6791 207.563 38.1295" fill="#ad2112" fill-rule="nonzero" opacity="1" stroke="#ad2112" stroke-linecap="butt" stroke-linejoin="round" stroke-width="42.5832"/>
<path d="M210.322 39.3913C209.918 38.7279 208.909 38.5349 208.14 38.3541" fill="none" opacity="1" stroke="#ad2112" stroke-linecap="round" stroke-linejoin="round" stroke-width="42.5832"/>
<path d="M390.802 41.171L390.659 41.0045L390.609 40.8123L390.534 40.5239L390.577 40.3057L390.502 40.0173L390.316 40.069L390.273 40.2871L390.323 40.4794" fill="none" opacity="1" stroke="#ad2112" stroke-linecap="round" stroke-linejoin="round" stroke-width="42.5832"/>
<path d="M391.615 40.4246C391.307 40.4057 391.395 41.4123 391.702 41.3802C392.254 41.3225 391.959 40.4456 391.615 40.4246Z" fill="none" opacity="1" stroke="#ad2112" stroke-linecap="round" stroke-linejoin="round" stroke-width="42.5832"/>
</g>
</svg>
