<?xml version="1.0" encoding="UTF-8" standalone="no"?>
<!DOCTYPE svg PUBLIC "-//W3C//DTD SVG 1.1//EN" "http://www.w3.org/Graphics/SVG/1.1/DTD/svg11.dtd">
<!-- Created with Vectornator (http://vectornator.io/) -->
<svg height="600.0px" stroke-miterlimit="10" style="fill-rule:nonzero;clip-rule:evenodd;stroke-linecap:round;stroke-linejoin:round;" version="1.1" viewBox="0 0 600 600" width="600.0px" xml:space="preserve" xmlns="http://www.w3.org/2000/svg" xmlns:xlink="http://www.w3.org/1999/xlink">
<defs/>
<g id="Слой-1">
<g opacity="1">
<g opacity="1">
<g opacity="1">
<path d="M226.406 42.1875C220.148 42.4456 214.168 42.8517 208 43.1562C210.229 68.705 206.625 195.969 206.625 195.969L30.5938 195.969L32.4688 385.094L191.719 387.031L188 568.438L390.562 570.844L390.562 386.062L564.281 384.125L569.406 193.562L390.562 193.562L391 52.875C387.255 52.1951 382.822 51.2939 379.188 50.6562C369.828 50.1626 358.27 49.5622 356.469 49.4687C340.571 48.6442 290.066 45.591 286.5 45.375C262.317 43.9101 244.141 43.0009 226.406 42.1875Z" fill="#f7ddad" fill-rule="nonzero" opacity="1" stroke="#f7ddad" stroke-linecap="butt" stroke-linejoin="round" stroke-width="42.5832"/>
</g>
</g>
</g>
<g opacity="1">
<path d="M389.518 38.4823C386.681 38.5149 383.618 39.065 380.559 40.1849C370.768 43.7689 364.72 51.8333 367.05 58.197C367.531 58.838 367.926 59.5824 368.569 60.0602C368.989 60.372 369.51 60.5188 369.982 60.745C370.364 60.9286 370.808 60.9618 371.189 61.1488C371.614 61.3569 371.956 61.7344 372.407 61.8761C373.154 62.111 373.928 62.2464 374.676 62.4783C376.769 63.1274 378.825 64.2269 381.054 64.3439C383.376 64.4657 385.809 64.0215 387.897 62.999C389.045 62.4364 390.144 61.7474 391.128 60.9315C391.849 60.3347 392.439 59.5826 392.96 58.8051C393.272 58.3378 393.459 57.788 393.597 57.2429C393.838 56.2919 393.519 55.4058 392.89 54.7067C392.49 54.2613 392.218 54.2835 392.127 53.6677C392.024 52.9637 392.229 52.0681 392.225 51.3428C392.008 50.6377 391.326 50.1585 390.429 49.9708C391.619 49.8306 392.844 49.9323 394.038 50.0358C394.69 50.0923 395.371 50.1966 396.027 50.0747C397.066 49.8819 398.247 49.2566 399.1 48.6472C399.371 48.4533 399.59 48.1821 399.887 48.0297C400.028 47.9574 400.218 47.9979 400.344 47.9022C400.995 47.4074 401.608 46.8296 402.06 46.1476C402.249 45.8612 402.356 45.5283 402.504 45.2184C400.902 40.8434 395.758 38.4107 389.518 38.4823ZM385.319 52.0619C385.052 52.5477 384.965 53.0594 385.113 53.5366C385.116 54.2004 385.312 55.2886 384.697 55.734C384.294 56.0257 383.274 56.5589 382.754 56.1956C382.601 56.0892 382.471 55.9011 382.469 55.7151C382.464 55.3576 382.549 54.9825 382.733 54.676C383.115 54.0416 383.568 53.4304 384.131 52.9498C384.507 52.6292 384.907 52.3367 385.319 52.0619ZM388.835 39.5671C386.831 39.5597 384.723 39.7929 382.584 40.2936C372.805 42.5824 366.084 49.5907 367.572 55.9468C369.255 56.5393 370.98 56.8436 372.669 57.4089C373.038 57.532 373.526 57.4795 373.773 57.779C374.441 58.5899 374.764 59.6323 375.263 60.5568C375.264 60.5584 375.462 60.4291 375.467 60.4323C375.712 60.5901 375.92 60.8029 376.171 60.95C377.114 61.5019 377.582 61.7132 378.616 61.9129C379.647 62.112 380.949 62.0998 381.926 61.65C382.139 61.5524 382.325 60.9547 382.474 60.9212C383.797 60.6238 385.244 60.6742 386.445 60.046C387.132 59.6873 387.381 58.8078 387.782 58.1457C388.213 57.4346 388.732 56.7409 388.937 55.9352C389.076 55.3912 388.776 54.8202 388.775 54.2587C388.774 53.8328 388.993 53.403 389.272 53.0813C389.64 52.1316 388.754 50.9023 387.293 50.3358C385.832 49.7694 384.348 50.0802 383.98 51.03C383.941 51.0768 383.919 51.1942 383.863 51.1707C383.728 51.1143 383.633 50.9802 383.559 50.8536C383.32 50.4403 382.922 50.0419 382.933 49.5644C382.949 48.8842 383.36 48.2703 383.633 47.6468C383.893 47.0516 383.956 46.2228 384.529 45.916C385.724 45.276 387.178 45.3386 388.5 45.0409C388.557 45.0281 388.584 44.5372 388.62 44.4885C388.834 44.1977 389.382 44.1095 389.701 44.0492C390.428 43.9117 391.216 43.9102 391.942 44.0492C392.32 44.1214 392.699 44.2038 393.056 44.3444C393.77 44.625 394.396 45.0921 395.043 45.5032C395.108 45.5447 395.174 45.2749 395.211 45.343C395.71 46.2676 396.01 47.329 396.701 48.1208C396.935 48.3885 397.405 48.2232 397.758 48.2626C398.254 48.3179 398.749 48.4084 399.248 48.4044C400.535 48.3942 401.805 48.1465 402.983 47.6584C401.821 42.6927 395.992 39.5938 388.835 39.5671Z" fill="#f7ddad" stroke="none"/>
</g>
</g>
</svg>
