<?xml version="1.0" encoding="UTF-8" standalone="no"?>
<!DOCTYPE svg PUBLIC "-//W3C//DTD SVG 1.1//EN" "http://www.w3.org/Graphics/SVG/1.1/DTD/svg11.dtd">
<!-- Created with Vectornator (http://vectornator.io/) -->
<svg height="511.99999999999994px" stroke-miterlimit="10" style="fill-rule:nonzero;clip-rule:evenodd;stroke-linecap:round;stroke-linejoin:round;" version="1.1" viewBox="0 0 512 512" width="512.0px" xml:space="preserve" xmlns="http://www.w3.org/2000/svg" xmlns:xlink="http://www.w3.org/1999/xlink">
<defs/>
<g id="Слой-1">
<path d="M197.361 297.946C197.361 297.946 190.915 455.66 176.304 468.981C161.693 482.303 250.648 479.725 250.648 479.725" fill="none" opacity="1" stroke="#a80c20" stroke-linecap="butt" stroke-linejoin="round" stroke-width="10"/>
<path d="M303.431 297.946C303.431 297.946 310.503 455.66 326.535 468.981C342.566 482.303 244.963 479.725 244.963 479.725" fill="none" opacity="1" stroke="#a80c20" stroke-linecap="butt" stroke-linejoin="round" stroke-width="10"/>
<path d="M192.94 306.138C192.94 306.138 177.663 341.524 160.233 375.013C146.399 401.591 131.208 426.975 121.222 432.523C98.6535 445.061 69.5649 465.623 69.5649 465.623C69.5649 465.623 95.6443 485.183 119.216 483.177C142.788 481.171 175.387 472.645 175.387 472.645" fill="none" opacity="1" stroke="#a80c20" stroke-linecap="butt" stroke-linejoin="round" stroke-width="10"/>
<path d="M306.02 306.138C306.02 306.138 322.911 341.524 342.184 375.013C357.48 401.591 374.276 426.975 385.318 432.523C410.272 445.061 442.435 465.623 442.435 465.623C442.435 465.623 413.599 485.183 387.536 483.177C361.473 481.171 325.429 472.645 325.429 472.645" fill="none" opacity="1" stroke="#a80c20" stroke-linecap="butt" stroke-linejoin="round" stroke-width="10"/>
<path d="M117.625 163.313C117.625 88.9564 179.877 28.6788 256.67 28.6788C333.462 28.6788 395.714 88.9564 395.714 163.313C395.714 187.396 402.656 228.863 387.53 252.986C369.887 281.125 328.417 291.122 306.02 306.138C305.377 306.569 278.907 162.58 256 162.58C235.364 162.58 196.385 309.022 192.94 306.138C169.662 286.645 135.622 272.603 121.583 243.117C111.383 221.693 117.625 186.195 117.625 163.313Z" fill="none" opacity="1" stroke="#a80c20" stroke-linecap="butt" stroke-linejoin="round" stroke-width="10"/>
<path d="M202.713 279.645C202.713 279.645 248.694 301.561 297.255 280.934" fill="none" opacity="1" stroke="#a80c20" stroke-linecap="butt" stroke-linejoin="round" stroke-width="10"/>
<path d="M216.035 243.117C216.035 243.117 255.57 265.034 290.379 243.547" fill="none" opacity="1" stroke="#a80c20" stroke-linecap="butt" stroke-linejoin="round" stroke-width="15.5655"/>
<path d="M216.035 55.7522L300.624 55.7522L300.624 142.989L216.035 142.989L216.035 55.7522Z" fill="none" opacity="1" stroke="#a80c20" stroke-linecap="butt" stroke-linejoin="round" stroke-width="9.94187"/>
<path d="M258.149 75.9405L259.008 126.22" fill="none" opacity="1" stroke="#a80c20" stroke-linecap="butt" stroke-linejoin="round" stroke-width="9.94187"/>
<path d="M230.431 99.3704L287.586 98.9407" fill="none" opacity="1" stroke="#a80c20" stroke-linecap="butt" stroke-linejoin="round" stroke-width="9.94187"/>
</g>
</svg>
